<svg width="200" height="64" viewBox="0 0 200 64" fill="none" xmlns="http://www.w3.org/2000/svg">
<g clip-path="url(#clip0_4703_4774)">
<path d="M104.091 6.74585L98.3814 23.0746H96.7747L92.1189 9.70429L87.4391 23.0746H85.8563L80.1226 6.74585H82.0492L86.6811 20.3916L91.4293 6.74585L92.8734 6.7681L97.5532 20.4378L102.231 6.74585H104.091Z" fill="#222222"/>
<path d="M107.257 22.5014C106.432 22.012 105.792 21.3156 105.34 20.4139C104.889 19.5121 104.664 18.4564 104.664 17.2501C104.664 16.0438 104.889 14.9864 105.34 14.0846C105.792 13.1829 106.43 12.4882 107.257 11.9988C108.081 11.5095 109.036 11.2648 110.123 11.2648C111.209 11.2648 112.164 11.5095 112.99 11.9988C113.815 12.4882 114.455 13.1846 114.907 14.0846C115.357 14.9881 115.583 16.0438 115.583 17.2501C115.583 18.4564 115.357 19.5139 114.907 20.4139C114.455 21.3173 113.817 22.012 112.99 22.5014C112.164 22.9907 111.209 23.2354 110.123 23.2354C109.036 23.2354 108.083 22.9907 107.257 22.5014ZM112.761 20.5627C113.372 19.8047 113.678 18.7011 113.678 17.2484C113.678 15.7957 113.363 14.7519 112.737 13.9803C112.111 13.2086 111.24 12.8219 110.123 12.8219C109.005 12.8219 108.112 13.2086 107.486 13.9803C106.86 14.7519 106.545 15.8419 106.545 17.2484C106.545 18.6549 106.855 19.8047 107.474 20.5627C108.093 21.319 108.976 21.6972 110.123 21.6972C111.269 21.6972 112.149 21.319 112.761 20.5627Z" fill="#222222"/>
<path d="M120.375 22.5014C119.551 22.012 118.911 21.3156 118.459 20.4139C118.007 19.5121 117.783 18.4564 117.783 17.2501C117.783 16.0438 118.007 14.9864 118.459 14.0846C118.911 13.1829 119.549 12.4882 120.375 11.9988C121.2 11.5095 122.155 11.2648 123.241 11.2648C124.328 11.2648 125.283 11.5095 126.109 11.9988C126.934 12.4882 127.574 13.1846 128.026 14.0846C128.476 14.9881 128.702 16.0438 128.702 17.2501C128.702 18.4564 128.476 19.5139 128.026 20.4139C127.574 21.3173 126.936 22.012 126.109 22.5014C125.285 22.9907 124.328 23.2354 123.241 23.2354C122.155 23.2354 121.202 22.9907 120.375 22.5014ZM125.88 20.5627C126.491 19.8047 126.797 18.7011 126.797 17.2484C126.797 15.7957 126.482 14.7519 125.856 13.9803C125.23 13.2086 124.359 12.8219 123.241 12.8219C122.124 12.8219 121.231 13.2086 120.605 13.9803C119.978 14.7519 119.664 15.8419 119.664 17.2484C119.664 18.6549 119.973 19.8047 120.593 20.5627C121.212 21.319 122.095 21.6972 123.241 21.6972C124.388 21.6972 125.267 21.319 125.88 20.5627Z" fill="#222222"/>
<path d="M141.75 6.19489V23.0746H139.914V20.9888C139.579 21.7074 139.071 22.2601 138.39 22.6502C137.709 23.0404 136.918 23.2354 136.015 23.2354C135.007 23.2354 134.115 22.9822 133.344 22.4774C132.572 21.9744 131.973 21.2677 131.545 20.3557C131.116 19.4471 130.904 18.3965 130.904 17.2022C130.904 16.0079 131.114 14.9658 131.533 14.0709C131.954 13.1761 132.555 12.4848 133.333 11.9954C134.114 11.506 135.009 11.2614 136.016 11.2614C136.92 11.2614 137.707 11.4547 138.379 11.8448C139.053 12.235 139.557 12.7825 139.894 13.484V6.19147H141.752L141.75 6.19489ZM138.999 20.5388C139.61 19.7671 139.916 18.6703 139.916 17.2484C139.916 15.8265 139.61 14.7519 138.999 13.9803C138.386 13.2086 137.515 12.8219 136.384 12.8219C135.253 12.8219 134.369 13.2034 133.735 13.9683C133.101 14.7314 132.784 15.8094 132.784 17.2022C132.784 18.595 133.101 19.7294 133.735 20.5165C134.37 21.3036 135.253 21.6972 136.384 21.6972C137.515 21.6972 138.386 21.3122 138.999 20.5388Z" fill="#222222"/>
<path d="M168.284 6.74585L162.572 23.0746H160.967L156.31 9.70429L151.632 23.0746H150.049L144.315 6.74585H146.24L150.874 20.3916L155.62 6.74585L157.066 6.7681L161.746 20.4378L166.424 6.74585H168.284Z" fill="#222222"/>
<path d="M172.939 6.65346V8.7632H170.669V6.65346H172.939ZM170.854 11.5368H172.712V23.0729H170.854V11.5368Z" fill="#222222"/>
<path d="M186.219 15.8265V23.0729H184.361V15.9172C184.361 14.8478 184.147 14.0624 183.719 13.5662C183.29 13.07 182.617 12.8219 181.7 12.8219C180.631 12.8219 179.773 13.1504 179.132 13.8074C178.49 14.4662 178.169 15.3525 178.169 16.4681V23.0729H176.31V14.7708C176.31 13.5799 176.249 12.5019 176.125 11.5368H177.891L178.076 13.6004C178.427 12.8527 178.956 12.2743 179.657 11.8688C180.36 11.4633 181.165 11.2614 182.065 11.2614C184.833 11.2614 186.216 12.7825 186.216 15.8248L186.219 15.8265Z" fill="#222222"/>
<path d="M200 11.5386V22.9822C200 24.695 199.562 25.9902 198.683 26.8697C197.801 27.7492 196.506 28.189 194.795 28.189C193.084 28.189 191.523 27.792 190.256 26.9964L190.575 25.4838C191.31 25.8979 192.003 26.1956 192.653 26.3787C193.301 26.5617 194.016 26.6524 194.795 26.6524C195.912 26.6524 196.752 26.3581 197.319 25.7695C197.883 25.1809 198.167 24.3048 198.167 23.143V20.4122C197.815 21.1462 197.3 21.7177 196.619 22.1215C195.94 22.527 195.13 22.7289 194.2 22.7289C193.19 22.7289 192.292 22.4928 191.505 22.0189C190.717 21.5449 190.11 20.8724 189.682 19.9998C189.253 19.1289 189.041 18.1262 189.041 16.9952C189.041 15.8641 189.255 14.8615 189.682 13.9905C190.11 13.1196 190.717 12.4471 191.505 11.9715C192.292 11.4975 193.19 11.2614 194.2 11.2614C195.117 11.2614 195.914 11.4598 196.595 11.8585C197.274 12.2555 197.791 12.8133 198.144 13.5337V11.5368H200.002L200 11.5386ZM197.19 20.058C197.825 19.3171 198.142 18.2973 198.142 16.9969C198.142 15.6965 197.825 14.6767 197.19 13.9358C196.556 13.1949 195.68 12.8236 194.564 12.8236C193.448 12.8236 192.543 13.1949 191.893 13.9358C191.243 14.6767 190.918 15.6982 190.918 16.9969C190.918 18.2956 191.243 19.3171 191.893 20.058C192.543 20.7989 193.433 21.1702 194.564 21.1702C195.695 21.1702 196.556 20.7989 197.19 20.058Z" fill="#222222"/>
<path d="M96.3058 37.877C96.0783 37.6289 95.7497 37.362 95.3186 37.078C94.8874 36.7956 94.3826 36.5287 93.806 36.2789C93.2276 36.0291 92.5928 35.8255 91.9016 35.6663C91.2103 35.5089 90.5019 35.4285 89.7764 35.4285C88.1663 35.4285 86.9822 35.7245 86.2225 36.3131C85.4628 36.9034 85.0847 37.7179 85.0847 38.7617C85.0847 39.352 85.2027 39.8328 85.4423 40.2075C85.6801 40.5822 86.048 40.9108 86.5459 41.1948C87.0455 41.4788 87.6701 41.7287 88.4161 41.9425C89.1638 42.1598 90.0365 42.3908 91.0357 42.6407C92.2592 42.935 93.3662 43.2635 94.3518 43.6262C95.3391 43.9907 96.1724 44.4321 96.8517 44.9523C97.5327 45.4742 98.0597 46.1158 98.4327 46.8738C98.8057 47.6336 98.9939 48.5558 98.9939 49.6458C98.9939 50.8692 98.7612 51.9232 98.2958 52.8078C97.8304 53.6907 97.1956 54.4111 96.3914 54.9672C95.5872 55.5216 94.6512 55.9305 93.5852 56.1906C92.5193 56.4507 91.3763 56.5824 90.1511 56.5824C88.3152 56.5824 86.5391 56.3035 84.8297 55.7474C83.1169 55.1931 81.5701 54.382 80.1876 53.316L81.9209 50.0513C82.2152 50.3456 82.6413 50.6758 83.1956 51.0369C83.7517 51.4013 84.3985 51.735 85.1343 52.0396C85.87 52.3458 86.6708 52.6059 87.5315 52.8215C88.3939 53.0371 89.287 53.1449 90.2179 53.1449C91.7133 53.1449 92.87 52.8848 93.6862 52.3629C94.5024 51.8428 94.9096 51.0711 94.9096 50.0513C94.9096 49.4387 94.7573 48.9288 94.451 48.5199C94.1465 48.1127 93.7084 47.755 93.1421 47.4505C92.5757 47.1442 91.8844 46.867 91.0665 46.6172C90.2521 46.3674 89.3196 46.1056 88.2792 45.8352C87.0763 45.517 86.0292 45.1833 85.1326 44.8325C84.2377 44.4801 83.4951 44.0557 82.9048 43.5561C82.3161 43.0582 81.8678 42.473 81.5616 41.8057C81.2553 41.1366 81.103 40.3273 81.103 39.3742C81.103 38.197 81.3289 37.1464 81.784 36.2293C82.2374 35.3104 82.8551 34.5405 83.6388 33.9159C84.4208 33.2931 85.3447 32.8225 86.4107 32.5043C87.475 32.186 88.6317 32.0286 89.8791 32.0286C91.5114 32.0286 93.0189 32.2887 94.4031 32.8106C95.7857 33.3307 96.9988 33.9775 98.0409 34.7475L96.3076 37.8753L96.3058 37.877Z" fill="#222222"/>
<path d="M123.389 38.558H126.96L119.479 56.3446H116.384L113.085 48.0801L109.787 56.3446H106.692L99.177 38.558H102.748L108.496 52.7394L111.081 46.1415L107.986 38.5923H111.047L113.086 44.1686L115.093 38.5923H118.154L115.093 46.1415L117.679 52.7394L123.392 38.558H123.389Z" fill="#222222"/>
<path d="M129.146 35.6338V31.5187H132.887V35.6338H129.146ZM129.146 56.3446V38.558H132.887V56.3446H129.146Z" fill="#222222"/>
<path d="M141.991 56.3446L135.19 38.558H139.033L144.134 53.1808L149.269 38.558H152.805L146.004 56.3446H141.99H141.991Z" fill="#222222"/>
<path d="M155.09 31.5187H158.83V51.208C158.83 51.8667 159.001 52.3818 159.342 52.7548C159.68 53.1295 160.156 53.316 160.769 53.316C161.018 53.316 161.308 53.2715 161.636 53.1791C161.965 53.0884 162.276 52.9875 162.572 52.8746L163.118 55.7988C162.572 56.0486 161.927 56.2454 161.179 56.3925C160.432 56.5397 159.761 56.615 159.172 56.615C157.88 56.615 156.876 56.2625 156.162 55.5592C155.449 54.8577 155.091 53.8584 155.091 52.5666V31.517L155.09 31.5187Z" fill="#222222"/>
<path d="M172.921 56.6834C171.536 56.6834 170.279 56.4404 169.146 55.9528C168.012 55.4668 167.043 54.8029 166.239 53.9645C165.433 53.1261 164.81 52.1508 164.369 51.0386C163.926 49.9281 163.705 48.7492 163.705 47.5018C163.705 46.2544 163.926 45.0704 164.369 43.9479C164.81 42.8255 165.433 41.8399 166.239 40.9895C167.043 40.1391 168.013 39.47 169.146 38.9824C170.279 38.4965 171.548 38.2518 172.953 38.2518C174.358 38.2518 175.59 38.5016 176.712 38.9995C177.835 39.4974 178.793 40.1613 179.585 40.9878C180.379 41.8159 180.985 42.7793 181.404 43.8778C181.823 44.978 182.034 46.1278 182.034 47.329C182.034 47.601 182.022 47.856 182 48.0955C181.976 48.3334 181.955 48.5319 181.931 48.6893H167.683C167.752 49.4832 167.938 50.1967 168.244 50.8315C168.549 51.4664 168.946 52.0156 169.435 52.481C169.921 52.9464 170.477 53.3023 171.102 53.5504C171.725 53.802 172.377 53.9252 173.058 53.9252C173.557 53.9252 174.05 53.8618 174.536 53.7387C175.024 53.6137 175.472 53.4324 175.881 53.1945C176.288 52.9567 176.651 52.6675 176.969 52.3253C177.287 51.9865 177.535 51.6118 177.717 51.2028L180.913 52.1217C180.301 53.4598 179.286 54.5531 177.869 55.4035C176.452 56.2539 174.803 56.6783 172.922 56.6783L172.921 56.6834ZM178.328 46.1073C178.259 45.3595 178.073 44.6683 177.766 44.0335C177.462 43.3987 177.07 42.8597 176.594 42.4182C176.117 41.9751 175.563 41.6294 174.928 41.3813C174.295 41.1315 173.624 41.0066 172.922 41.0066C172.221 41.0066 171.555 41.1315 170.932 41.3813C170.31 41.6311 169.76 41.9751 169.283 42.4182C168.807 42.8597 168.421 43.3987 168.126 44.0335C167.832 44.6666 167.651 45.3595 167.582 46.1073H178.329H178.328Z" fill="#222222"/>
<path d="M28.5342 44.6742C30.2268 41.7771 29.2548 38.0549 26.3606 36.3588L26.364 36.3537C22.1495 33.8853 19.4049 29.8671 18.421 25.444C17.5577 21.5585 18.0573 17.3634 20.1204 13.6258C20.1884 13.5017 20.2529 13.3775 20.3243 13.255C25.0283 5.20666 35.3591 2.50007 43.399 7.20896C51.4389 11.9179 54.1427 22.2594 49.4387 30.3077C49.3673 30.4302 49.2909 30.5476 49.2161 30.6667C47.4113 24.9251 43.5519 19.808 37.9524 16.5298L37.949 16.5349C35.0549 14.8405 31.3365 15.8136 29.6422 18.7107C27.9479 21.6078 28.9217 25.33 31.8158 27.0261L31.8124 27.0312C36.0269 29.4996 38.7732 33.5178 39.7554 37.9409C40.6187 41.8265 40.1191 46.0216 38.056 49.7591C37.988 49.8833 37.9235 50.0075 37.8521 50.13C33.1481 58.1783 22.8174 60.8849 14.7774 56.176C6.7375 51.4671 4.03373 41.1256 8.73771 33.0772C8.80908 32.9548 8.88556 32.8374 8.96033 32.7183C10.7651 38.4598 14.6245 43.577 20.2241 46.8552L20.2275 46.8501C21.191 47.4149 22.2464 47.6819 23.2881 47.6819C25.3733 47.6819 27.4041 46.6051 28.5342 44.6725M32.8524 0.0384521C24.2534 0.0622688 15.8939 4.51258 11.2375 12.4792C9.90861 14.7537 8.97903 17.1507 8.42332 19.5902C6.57265 21.2693 4.93952 23.2546 3.61057 25.5291C-3.38932 37.5054 0.634897 52.8961 12.5988 59.905C24.5627 66.9122 39.9373 62.8838 46.9389 50.9074C48.2678 48.6329 49.1974 46.2359 49.7531 43.7964C51.6055 42.1174 53.2369 40.1321 54.5658 37.8576C61.5657 25.8812 57.5415 10.4906 45.5776 3.48166C41.6163 1.16124 37.2777 0.0520617 32.9969 0.0384521H32.8524Z" fill="url(#paint0_linear_4703_4774)"/>
<path d="M43.4097 7.31514C51.4145 12.012 54.1065 22.3271 49.4231 30.3549C49.352 30.4771 49.2759 30.5941 49.2014 30.7129C50.5161 34.9007 50.7343 39.4228 49.7378 43.8075C51.582 42.1327 53.2063 40.1525 54.5295 37.8838C61.4988 25.938 57.4922 10.5867 45.5789 3.59735L43.4097 7.31514Z" fill="url(#paint1_linear_4703_4774)"/>
<path d="M14.7493 56.0882C6.74452 51.3913 4.05258 41.0762 8.73598 33.0484C8.80705 32.9262 8.88319 32.8092 8.95763 32.6904C7.64297 28.5026 7.4247 23.9805 8.42128 19.5958C6.57702 21.2706 4.95271 23.2508 3.62959 25.5195C-3.33968 37.4653 0.666926 52.8166 12.5785 59.8059L14.7476 56.0865L14.7493 56.0882Z" fill="url(#paint2_linear_4703_4774)"/>
</g>
<defs>
<linearGradient id="paint0_linear_4703_4774" x1="0.176971" y1="21.2001" x2="58.0039" y2="42.4685" gradientUnits="userSpaceOnUse">
<stop stop-color="#F29765"/>
<stop offset="1" stop-color="#EB5F6E"/>
</linearGradient>
<linearGradient id="paint1_linear_4703_4774" x1="56.123" y1="26.3888" x2="47.4821" y2="39.564" gradientUnits="userSpaceOnUse">
<stop stop-color="#222222" stop-opacity="0"/>
<stop offset="1" stop-color="#222222" stop-opacity="0.3"/>
</linearGradient>
<linearGradient id="paint2_linear_4703_4774" x1="2.39538" y1="35.1152" x2="13.0896" y2="23.651" gradientUnits="userSpaceOnUse">
<stop stop-color="#222222" stop-opacity="0"/>
<stop offset="1" stop-color="#222222" stop-opacity="0.2"/>
</linearGradient>
<clipPath id="clip0_4703_4774">
<rect width="200" height="63.6757" fill="white" transform="translate(0 0.0385132)"/>
</clipPath>
</defs>
</svg>
